<svg xmlns="http://www.w3.org/2000/svg" xmlns:xlink="http://www.w3.org/1999/xlink" preserveAspectRatio="xMidYMid" width="32" height="32" viewBox="0 0 32 32">
  <defs>
    <style>

      .cls-2 {
        fill: #454546;
      }
    </style>
  </defs>
  <path d="M30.500,17.500 C30.500,17.500 26.500,17.500 26.500,17.500 C26.500,17.500 26.500,17.500 26.500,17.500 C25.672,17.500 25.000,16.828 25.000,16.000 C25.000,15.172 25.672,14.500 26.500,14.500 C26.500,14.500 26.500,14.500 26.500,14.500 C26.500,14.500 30.500,14.500 30.500,14.500 C31.328,14.500 32.000,15.172 32.000,16.000 C32.000,16.828 31.328,17.500 30.500,17.500 ZM28.061,6.061 C28.061,6.061 25.338,8.783 25.338,8.783 C25.338,8.783 24.561,9.560 24.561,9.560 C24.561,9.560 24.561,9.560 24.561,9.560 C24.561,9.560 24.556,9.556 24.556,9.556 C24.287,9.829 23.915,10.000 23.500,10.000 C22.672,10.000 22.000,9.328 22.000,8.500 C22.000,8.085 22.171,7.713 22.444,7.443 C22.444,7.443 22.439,7.439 22.439,7.439 C22.439,7.439 22.439,7.439 22.439,7.439 C22.439,7.439 23.217,6.661 23.217,6.661 C23.217,6.661 25.939,3.939 25.939,3.939 C25.939,3.939 25.939,3.939 25.939,3.939 C26.211,3.668 26.586,3.500 27.000,3.500 C27.828,3.500 28.500,4.171 28.500,5.000 C28.500,5.414 28.332,5.789 28.061,6.061 C28.061,6.061 28.061,6.061 28.061,6.061 ZM16.000,22.000 C13.762,22.000 11.814,20.772 10.782,18.955 C10.782,18.955 10.191,17.476 10.191,17.476 C10.071,17.003 10.000,16.511 10.000,16.000 C10.000,12.686 12.686,10.000 16.000,10.000 C19.314,10.000 22.000,12.686 22.000,16.000 C22.000,19.313 19.314,22.000 16.000,22.000 ZM16.000,13.000 C14.343,13.000 13.000,14.343 13.000,16.000 C13.000,17.657 14.343,19.000 16.000,19.000 C17.657,19.000 19.000,17.657 19.000,16.000 C19.000,14.343 17.657,13.000 16.000,13.000 ZM16.000,7.000 C15.172,7.000 14.500,6.328 14.500,5.500 C14.500,5.500 14.500,5.500 14.500,5.500 C14.500,5.500 14.500,1.499 14.500,1.499 C14.500,0.671 15.172,-0.000 16.000,-0.000 C16.828,-0.000 17.500,0.671 17.500,1.499 C17.500,1.499 17.500,5.500 17.500,5.500 C17.500,5.500 17.500,5.500 17.500,5.500 C17.500,6.328 16.828,7.000 16.000,7.000 ZM9.561,24.560 C9.561,24.560 9.561,24.560 9.561,24.560 C9.561,24.560 8.783,25.338 8.783,25.338 C8.783,25.338 6.061,28.060 6.061,28.060 C6.061,28.060 6.061,28.060 6.061,28.060 C5.789,28.332 5.414,28.500 5.000,28.500 C4.172,28.500 3.500,27.828 3.500,27.000 C3.500,26.585 3.668,26.211 3.939,25.939 C3.939,25.939 3.939,25.939 3.939,25.939 C3.939,25.939 6.662,23.217 6.662,23.217 C6.662,23.217 7.439,22.439 7.439,22.439 C7.439,22.439 7.439,22.439 7.439,22.439 C7.439,22.439 7.439,22.439 7.439,22.439 C7.711,22.167 8.086,22.000 8.500,22.000 C9.328,22.000 10.000,22.671 10.000,23.500 C10.000,23.914 9.832,24.289 9.561,24.560 C9.561,24.560 9.561,24.560 9.561,24.560 ZM8.500,10.000 C8.085,10.000 7.713,9.829 7.444,9.556 C7.444,9.556 7.439,9.560 7.439,9.560 C7.439,9.560 7.439,9.560 7.439,9.560 C7.439,9.560 6.662,8.783 6.662,8.783 C6.662,8.783 3.939,6.061 3.939,6.061 C3.939,6.061 3.939,6.061 3.939,6.061 C3.668,5.789 3.500,5.414 3.500,5.000 C3.500,4.171 4.172,3.500 5.000,3.500 C5.414,3.500 5.789,3.668 6.061,3.939 C6.061,3.939 6.061,3.939 6.061,3.939 C6.061,3.939 8.783,6.661 8.783,6.661 C8.783,6.661 9.561,7.439 9.561,7.439 C9.561,7.439 9.561,7.439 9.561,7.439 C9.561,7.439 9.556,7.443 9.556,7.443 C9.829,7.713 10.000,8.085 10.000,8.500 C10.000,9.328 9.328,10.000 8.500,10.000 ZM5.500,14.500 C6.328,14.500 7.000,15.172 7.000,16.000 C7.000,16.828 6.328,17.500 5.500,17.500 C5.500,17.500 5.500,17.500 5.500,17.500 C5.500,17.500 1.500,17.500 1.500,17.500 C0.672,17.500 0.000,16.828 0.000,16.000 C0.000,15.172 0.672,14.500 1.500,14.500 C1.500,14.500 5.500,14.500 5.500,14.500 C5.500,14.500 5.500,14.500 5.500,14.500 ZM16.000,25.000 C16.828,25.000 17.500,25.672 17.500,26.500 C17.500,26.500 17.500,26.500 17.500,26.500 C17.500,26.500 17.500,30.500 17.500,30.500 C17.500,31.328 16.828,31.999 16.000,31.999 C15.172,31.999 14.500,31.328 14.500,30.500 C14.500,30.500 14.500,26.500 14.500,26.500 C14.500,26.500 14.500,26.500 14.500,26.500 C14.500,25.672 15.172,25.000 16.000,25.000 ZM23.500,22.000 C23.914,22.000 24.289,22.167 24.561,22.439 C24.561,22.439 24.561,22.439 24.561,22.439 C24.561,22.439 24.561,22.439 24.561,22.439 C24.561,22.439 24.561,22.439 24.561,22.439 C24.561,22.439 25.338,23.217 25.338,23.217 C25.338,23.217 28.061,25.939 28.061,25.939 C28.061,25.939 28.061,25.939 28.061,25.939 C28.332,26.211 28.500,26.585 28.500,27.000 C28.500,27.828 27.828,28.500 27.000,28.500 C26.586,28.500 26.211,28.332 25.939,28.060 C25.939,28.060 25.939,28.060 25.939,28.060 C25.939,28.060 23.217,25.338 23.217,25.338 C23.217,25.338 22.439,24.560 22.439,24.560 C22.439,24.560 22.439,24.560 22.439,24.560 C22.439,24.560 22.439,24.560 22.439,24.560 C22.439,24.560 22.439,24.560 22.439,24.560 C22.168,24.289 22.000,23.914 22.000,23.500 C22.000,22.671 22.672,22.000 23.500,22.000 Z" id="path-1" class="cls-2" fill-rule="evenodd"/>
</svg>
