<svg xmlns="http://www.w3.org/2000/svg" xmlns:xlink="http://www.w3.org/1999/xlink" preserveAspectRatio="xMidYMid" width="32" height="26" viewBox="0 0 32 26">
  <defs>
    <style>

      .cls-2 {
        fill: #454546;
      }
    </style>
  </defs>
  <path d="M30.500,26.000 C30.500,26.000 1.500,26.000 1.500,26.000 C0.672,26.000 -0.000,25.328 -0.000,24.499 C-0.000,24.499 -0.000,4.500 -0.000,4.500 C-0.000,3.671 0.672,3.000 1.500,3.000 C1.500,3.000 7.906,3.000 7.906,3.000 C7.906,3.000 10.309,0.597 10.309,0.597 C10.582,0.237 11.012,-0.000 11.500,-0.000 C11.500,-0.000 20.500,-0.000 20.500,-0.000 C20.921,-0.000 21.301,0.174 21.573,0.454 C21.573,0.454 21.575,0.453 21.575,0.453 C21.575,0.453 24.121,3.000 24.121,3.000 C24.121,3.000 30.500,3.000 30.500,3.000 C31.328,3.000 32.000,3.671 32.000,4.500 C32.000,4.500 32.000,24.499 32.000,24.499 C32.000,25.328 31.328,26.000 30.500,26.000 ZM16.000,5.000 C11.029,5.000 7.000,9.029 7.000,13.999 C7.000,18.970 11.029,23.000 16.000,23.000 C20.971,23.000 25.000,18.970 25.000,13.999 C25.000,9.029 20.971,5.000 16.000,5.000 ZM16.000,20.000 C12.686,20.000 10.000,17.313 10.000,13.999 C10.000,10.686 12.686,8.000 16.000,8.000 C19.314,8.000 22.000,10.686 22.000,13.999 C22.000,17.313 19.314,20.000 16.000,20.000 Z" id="path-1" class="cls-2" fill-rule="evenodd"/>
</svg>
