<svg xmlns="http://www.w3.org/2000/svg" xmlns:xlink="http://www.w3.org/1999/xlink" preserveAspectRatio="xMidYMid" width="30" height="27" viewBox="0 0 30 27">
  <defs>
    <style>

      .cls-2 {
        fill: #1dde85;
      }
    </style>
  </defs>
  <path d="M28.315,22.077 C28.315,22.077 21.115,22.077 21.115,22.077 C21.115,22.077 19.195,22.077 19.195,22.077 C19.195,22.077 19.195,24.477 19.195,24.477 C19.195,24.477 21.115,26.398 21.115,26.398 C21.115,26.398 21.115,26.877 21.115,26.877 C21.115,26.877 8.635,26.877 8.635,26.877 C8.635,26.877 8.635,26.398 8.635,26.398 C8.635,26.398 10.555,24.477 10.555,24.477 C10.555,24.477 10.555,22.077 10.555,22.077 C10.555,22.077 8.635,22.077 8.635,22.077 C8.635,22.077 1.435,22.077 1.435,22.077 C0.640,22.077 -0.005,21.433 -0.005,20.637 C-0.005,20.637 -0.005,1.438 -0.005,1.438 C-0.005,0.642 0.640,-0.003 1.435,-0.003 C1.435,-0.003 28.315,-0.003 28.315,-0.003 C29.110,-0.003 29.755,0.642 29.755,1.438 C29.755,1.438 29.755,20.637 29.755,20.637 C29.755,21.433 29.110,22.077 28.315,22.077 ZM27.835,1.917 C27.835,1.917 1.915,1.917 1.915,1.917 C1.915,1.917 1.915,18.237 1.915,18.237 C1.915,18.237 27.835,18.237 27.835,18.237 C27.835,18.237 27.835,1.917 27.835,1.917 Z" id="path-1" class="cls-2" fill-rule="evenodd"/>
</svg>
