<svg xmlns="http://www.w3.org/2000/svg" xmlns:xlink="http://www.w3.org/1999/xlink" preserveAspectRatio="xMidYMid" width="36" height="21" viewBox="0 0 36 21">
  <defs>
    <style>

      .cls-2 {
        fill: #454546;
      }
    </style>
  </defs>
  <path d="M35.205,10.255 C35.204,10.270 35.203,10.284 35.202,10.299 C35.201,10.306 35.200,10.314 35.200,10.321 C35.199,10.332 35.197,10.343 35.195,10.353 C35.194,10.366 35.193,10.378 35.191,10.391 C35.190,10.392 35.190,10.394 35.190,10.395 C35.147,10.674 35.018,10.935 34.822,11.136 C34.453,11.584 34.049,12.004 33.644,12.417 C31.451,14.643 28.934,16.629 26.178,18.071 C24.417,18.991 22.536,19.734 20.584,20.091 C18.439,20.483 16.291,20.464 14.156,20.000 C10.463,19.197 7.117,17.202 4.191,14.816 C2.833,13.709 1.497,12.498 0.374,11.136 C-0.117,10.540 -0.117,9.835 0.374,9.239 C0.743,8.791 1.147,8.371 1.553,7.958 C3.745,5.731 6.262,3.745 9.018,2.304 C10.779,1.384 12.660,0.641 14.612,0.284 C16.757,-0.109 18.905,-0.089 21.040,0.375 C24.733,1.178 28.079,3.173 31.005,5.558 C32.363,6.665 33.698,7.877 34.822,9.239 C35.018,9.440 35.146,9.701 35.189,9.980 C35.189,9.981 35.190,9.983 35.190,9.984 C35.192,9.997 35.193,10.009 35.195,10.022 C35.196,10.033 35.198,10.043 35.199,10.054 C35.200,10.061 35.200,10.068 35.201,10.076 C35.202,10.091 35.203,10.105 35.204,10.120 C35.205,10.143 35.207,10.165 35.207,10.187 C35.207,10.210 35.206,10.233 35.205,10.255 ZM17.606,3.312 C13.961,3.312 11.006,6.267 11.006,9.912 C11.006,13.557 13.961,16.512 17.606,16.512 C21.251,16.512 24.206,13.557 24.206,9.912 C24.206,6.267 21.251,3.312 17.606,3.312 ZM17.606,13.212 C15.783,13.212 14.306,11.735 14.306,9.912 C14.306,8.090 15.783,6.613 17.606,6.613 C19.429,6.613 20.906,8.090 20.906,9.912 C20.906,11.735 19.429,13.212 17.606,13.212 Z" id="path-1" class="cls-2" fill-rule="evenodd"/>
</svg>
