<svg xmlns="http://www.w3.org/2000/svg" xmlns:xlink="http://www.w3.org/1999/xlink" preserveAspectRatio="xMidYMid" width="32" height="29" viewBox="0 0 32 29">
  <defs>
    <style>

      .cls-2 {
        fill: #454546;
      }
    </style>
  </defs>
  <path d="M29.776,8.687 C26.171,5.170 21.246,3.000 15.813,3.000 C10.379,3.000 5.454,5.170 1.850,8.687 C1.850,8.687 0.002,6.305 0.002,6.305 C4.124,2.400 9.686,-0.000 15.813,-0.000 C21.939,-0.000 27.501,2.400 31.624,6.305 C31.624,6.305 29.776,8.687 29.776,8.687 ZM15.813,7.500 C20.208,7.500 24.173,9.333 26.994,12.272 C26.994,12.272 25.124,14.681 25.124,14.681 C22.835,12.121 19.517,10.500 15.813,10.500 C12.108,10.500 8.790,12.121 6.501,14.681 C6.501,14.681 4.631,12.272 4.631,12.272 C7.452,9.333 11.417,7.500 15.813,7.500 ZM15.813,15.000 C18.484,15.000 20.843,16.314 22.296,18.326 C22.296,18.326 20.645,20.455 20.645,20.455 C19.553,18.969 17.798,18.000 15.813,18.000 C13.827,18.000 12.072,18.969 10.980,20.455 C10.980,20.455 9.329,18.326 9.329,18.326 C10.782,16.314 13.141,15.000 15.813,15.000 ZM15.813,22.500 C17.469,22.500 18.812,23.843 18.812,25.500 C18.812,27.157 17.469,28.500 15.813,28.500 C14.156,28.500 12.812,27.157 12.812,25.500 C12.812,23.843 14.156,22.500 15.813,22.500 Z" id="path-1" class="cls-2" fill-rule="evenodd"/>
</svg>
